<svg width="60" height="60" viewBox="0 0 60 60" fill="none" xmlns="http://www.w3.org/2000/svg">
<path fill-rule="evenodd" clip-rule="evenodd" d="M14.9998 7.05697L17.2073 14.8241H12.7923L14.9998 7.05697ZM19.9437 24.4521L19.0344 21.2526H10.9653L10.056 24.4521C9.57065 26.1597 7.79298 27.1505 6.08542 26.6652C4.37782 26.1799 3.38699 24.4022 3.8723 22.6946L9.0429 4.50179C9.79968 1.83906 12.2316 0.00195312 14.9998 0.00195312C17.768 0.00195312 20.2 1.83906 20.9568 4.50179L26.1274 22.6946C26.6127 24.4022 25.6219 26.1799 23.9143 26.6652C22.2067 27.1505 20.429 26.1597 19.9437 24.4521ZM22.6795 33.212C23.8953 33.212 25.0071 33.8981 25.5524 34.9848C26.0977 36.0716 25.9831 37.3729 25.2563 38.3477L13.9069 53.5691H22.5009C24.2761 53.5691 25.7152 55.0083 25.7152 56.7834C25.7152 58.5586 24.2761 59.9977 22.5009 59.9977H7.5009C6.28505 59.9977 5.17329 59.3116 4.62802 58.2251C4.08272 57.1383 4.1973 55.8367 4.92408 54.8621L16.2735 39.6406H8.39379C6.61856 39.6406 5.1795 38.2015 5.1795 36.4263C5.1795 34.6511 6.61856 33.212 8.39379 33.212H22.6795Z" fill="#F84343"/>
<path fill-rule="evenodd" clip-rule="evenodd" d="M33.2143 7.5C31.4391 7.5 30 8.9391 30 10.7143C30 12.4895 31.4391 13.9286 33.2143 13.9286H52.5C54.2751 13.9286 55.7143 12.4895 55.7143 10.7143C55.7143 8.9391 54.2751 7.5 52.5 7.5H33.2143ZM33.2143 48.2143C31.4391 48.2143 30 49.6534 30 51.4286C30 53.2037 31.4391 54.6429 33.2143 54.6429H52.5C54.2751 54.6429 55.7143 53.2037 55.7143 51.4286C55.7143 49.6534 54.2751 48.2143 52.5 48.2143H33.2143ZM30 24.2856C30 22.5103 31.4391 21.0713 33.2143 21.0713H52.5C54.2751 21.0713 55.7143 22.5103 55.7143 24.2856C55.7143 26.0607 54.2751 27.4998 52.5 27.4998H33.2143C31.4391 27.4998 30 26.0607 30 24.2856ZM33.2143 34.643C31.4391 34.643 30 36.0821 30 37.8573C30 39.6325 31.4391 41.0716 33.2143 41.0716H52.5C54.2751 41.0716 55.7143 39.6325 55.7143 37.8573C55.7143 36.0821 54.2751 34.643 52.5 34.643H33.2143Z" fill="#FFCACF"/>
</svg>
