<svg width="72" height="72" viewBox="0 0 72 72" fill="none" xmlns="http://www.w3.org/2000/svg">
<path fill-rule="evenodd" clip-rule="evenodd" d="M53.4452 3.47874C54.7435 1.92823 57.0535 1.72405 58.6038 3.02268C62.1052 5.95549 64.9309 9.78326 66.8991 14.1619C68.8674 18.5405 69.9386 23.3801 70.049 28.2971C70.0504 28.3523 70.0504 28.4076 70.049 28.4629C69.9372 33.3857 68.8605 38.2303 66.884 42.6109C64.9079 46.9916 62.0715 50.8174 58.5579 53.7432C57.0037 55.0371 54.6947 54.8262 53.4003 53.272C52.1063 51.7178 52.3173 49.4086 53.8714 48.1145C56.4642 45.956 58.6502 43.052 60.2083 39.599C61.7551 36.17 62.6243 32.3265 62.7249 28.3789C62.6252 24.4348 61.76 20.5938 60.2185 17.1646C58.6663 13.7113 56.4871 10.8036 53.9012 8.63757C52.3505 7.33891 52.1464 5.02925 53.4452 3.47874ZM22.7879 44.6154C24.3479 45.9026 26.656 45.6813 27.9432 44.1213C29.2303 42.5612 29.0091 40.2531 27.4491 38.966C26.0588 37.8189 24.8634 36.2636 23.9986 34.3884C23.1483 32.5448 22.6539 30.4687 22.5727 28.3222C22.65 26.1704 23.1426 24.0879 23.9932 22.2384C24.8583 20.3573 26.0559 18.7973 27.4494 17.6473C29.0093 16.3599 29.2303 14.0518 27.9429 12.4919C26.6556 10.932 24.3475 10.711 22.7876 11.9983C20.4806 13.9022 18.6295 16.3721 17.339 19.1782C16.0486 21.9841 15.34 25.0779 15.2481 28.2186C15.246 28.2924 15.246 28.3661 15.2483 28.4399C15.346 31.573 16.0574 34.658 17.3477 37.4557C18.6381 40.2536 20.4861 42.7163 22.7879 44.6154ZM49.0794 12.1436C47.5193 10.8564 45.2112 11.0776 43.9241 12.6377C42.6369 14.1977 42.8581 16.5058 44.4181 17.793C45.8084 18.9401 47.0038 20.4953 47.8686 22.3705C48.7189 24.2142 49.2133 26.2903 49.2945 28.4367C49.2172 30.5886 48.7246 32.671 47.874 34.5206C47.0089 36.4017 45.8113 37.9617 44.4178 39.1117C42.858 40.399 42.637 42.7071 43.9243 44.2671C45.2116 45.827 47.5198 46.048 49.0797 44.7606C51.3866 42.8567 53.2377 40.3869 54.5282 37.5808C55.8187 34.7748 56.5272 31.6811 56.619 28.5403C56.6214 28.4666 56.6214 28.3928 56.619 28.3191C56.5213 25.1859 55.8099 22.1009 54.5194 19.3032C53.2294 16.5053 51.3812 14.0427 49.0794 12.1436ZM13.2637 53.7363C14.8142 55.0347 17.1239 54.8306 18.4226 53.2803C19.7212 51.7295 19.517 49.42 17.9665 48.1214C15.3803 45.9553 13.201 43.0477 11.6488 39.5944C10.1074 36.1652 9.2421 32.3242 9.14259 28.38C9.24332 24.4325 10.1124 20.589 11.6595 17.16C13.2173 13.707 15.4035 10.803 17.996 8.64446C19.5503 7.35033 19.7612 5.04125 18.467 3.48697C17.1729 1.9327 14.8639 1.7218 13.3096 3.01592C9.79605 5.94137 6.9597 9.76744 4.98334 14.148C3.00698 18.5286 1.93049 23.3733 1.81833 28.2961C1.81707 28.3514 1.81707 28.4067 1.81831 28.4619C1.92899 33.3789 3.00033 38.2184 4.96849 42.5971C6.93661 46.9757 9.76206 50.8033 13.2637 53.7363Z" fill="#FFCACF"/>
<path fill-rule="evenodd" clip-rule="evenodd" d="M28.0698 28.672C28.0698 24.2939 31.619 20.7446 35.9972 20.7446C40.3753 20.7446 43.9246 24.2939 43.9246 28.672C43.9246 31.7335 42.1891 34.3897 39.6482 35.7104C39.6555 35.8047 39.6592 35.9 39.6592 35.9961V66.0177C39.6592 68.0402 38.0197 69.6798 35.9972 69.6798C33.9747 69.6798 32.3351 68.0402 32.3351 66.0177V35.9961C32.3351 35.9 32.3388 35.8047 32.3461 35.7104C29.8053 34.3896 28.0698 31.7335 28.0698 28.672Z" fill="#F84343"/>
</svg>
