<svg width="60" height="60" viewBox="0 0 60 60" fill="none" xmlns="http://www.w3.org/2000/svg">
<g clip-path="url(#clip0_304_909)">
<path fill-rule="evenodd" clip-rule="evenodd" d="M37.3162 22.684C38.9898 24.3577 38.9898 27.0712 37.3162 28.7449L7.31619 58.745C5.64249 60.4186 2.92893 60.4186 1.25526 58.745C-0.418419 57.071 -0.418419 54.3577 1.25526 52.6842L31.2552 22.684C32.9289 21.0103 35.6425 21.0103 37.3162 22.684Z" fill="#FFCACF"/>
<path d="M56.5278 5.75906L52.9278 16.3876C52.8035 16.6335 52.7388 16.905 52.7388 17.1805C52.7388 17.4559 52.8035 17.7275 52.9278 17.9733L59.6564 26.9733C59.8497 27.231 59.9667 27.5378 59.9937 27.8588C60.0207 28.1797 59.9568 28.5018 59.809 28.7881C59.6615 29.0744 59.4361 29.3133 59.1588 29.4774C58.882 29.6416 58.564 29.7243 58.2421 29.7162H47.0135C46.7384 29.7243 46.4684 29.7939 46.2237 29.92C45.979 30.0461 45.7655 30.2254 45.5992 30.4448L39.3421 39.4448C39.1585 39.7079 38.9049 39.9142 38.6099 40.0403C38.315 40.1663 37.9906 40.2072 37.6736 40.158C37.3566 40.1089 37.0598 39.9719 36.8168 39.7624C36.5738 39.553 36.3945 39.2796 36.2992 38.9733L32.9563 28.2591C32.8801 27.9942 32.7379 27.753 32.5429 27.5582C32.3481 27.3633 32.1069 27.2211 31.8421 27.1448L21.1278 23.8019C20.8215 23.7066 20.5481 23.5273 20.3387 23.2843C20.1292 23.0413 19.9922 22.7445 19.9431 22.4275C19.894 22.1105 19.9348 21.7861 20.0608 21.4912C20.1869 21.1962 20.3932 20.9426 20.6563 20.7591L29.8278 14.2876C30.0472 14.1213 30.2265 13.9079 30.3526 13.6632C30.4786 13.4184 30.5482 13.1485 30.5563 12.8733V1.64477C30.5683 1.34985 30.6562 1.06301 30.8116 0.812036C30.9669 0.56106 31.1845 0.354447 31.4431 0.212202C31.7017 0.0699557 31.9927 -0.00310232 32.2878 0.00010098C32.583 0.00330428 32.8723 0.0826603 33.1278 0.230486L42.1278 6.95906C42.3562 7.11776 42.6192 7.21993 42.895 7.25717C43.1705 7.29441 43.4512 7.2657 43.7135 7.17334L54.3421 3.57334C54.6468 3.46622 54.976 3.44741 55.291 3.51909C55.606 3.59076 55.8944 3.75001 56.1228 3.97847C56.3512 4.20693 56.5102 4.49529 56.5818 4.81033C56.6538 5.12537 56.635 5.45426 56.5278 5.75906Z" fill="#F84343"/>
</g>
<defs>
<clipPath id="clip0_304_909">
<rect width="60" height="60" fill="white"/>
</clipPath>
</defs>
</svg>
