<svg width="60" height="60" viewBox="0 0 60 60" fill="none" xmlns="http://www.w3.org/2000/svg">
<g clip-path="url(#clip0_305_934)">
<path fill-rule="evenodd" clip-rule="evenodd" d="M6.74237 6.74237C6.94333 6.54146 7.21586 6.42857 7.5 6.42857H13.9286C15.7038 6.42857 17.1429 4.98947 17.1429 3.21429C17.1429 1.43908 15.7038 0 13.9286 0H7.5C5.51087 0 3.60322 0.790178 2.1967 2.1967C0.790178 3.60322 0 5.51087 0 7.5V13.9286C0 15.7038 1.43908 17.1429 3.21429 17.1429C4.98947 17.1429 6.42857 15.7038 6.42857 13.9286V7.5C6.42857 7.21586 6.54146 6.94333 6.74237 6.74237ZM60 46.0714C60 44.2963 58.5609 42.8571 56.7857 42.8571C55.0106 42.8571 53.5714 44.2963 53.5714 46.0714V52.5C53.5714 52.7841 53.4587 53.0567 53.2577 53.2577C53.0567 53.4587 52.7841 53.5714 52.5 53.5714H46.0714C44.2963 53.5714 42.8571 55.0106 42.8571 56.7857C42.8571 58.5609 44.2963 60 46.0714 60H52.5C54.489 60 56.3966 59.2097 57.8031 57.8031C59.2097 56.3966 60 54.489 60 52.5V46.0714ZM3.21429 42.8571C4.98947 42.8571 6.42857 44.2963 6.42857 46.0714V52.5C6.42857 52.7841 6.54146 53.0567 6.74237 53.2577C6.94333 53.4587 7.21586 53.5714 7.5 53.5714H13.9286C15.7038 53.5714 17.1429 55.0106 17.1429 56.7857C17.1429 58.5609 15.7038 60 13.9286 60H7.5C5.51087 60 3.60322 59.2097 2.1967 57.8031C0.790178 56.3966 0 54.489 0 52.5V46.0714C0 44.2963 1.43908 42.8571 3.21429 42.8571ZM46.0714 0C44.2963 0 42.8571 1.43908 42.8571 3.21429C42.8571 4.98947 44.2963 6.42857 46.0714 6.42857H52.5C52.7841 6.42857 53.0567 6.54146 53.2577 6.74237C53.4587 6.94333 53.5714 7.21586 53.5714 7.5V13.9286C53.5714 15.7038 55.0106 17.1429 56.7857 17.1429C58.5609 17.1429 60 15.7038 60 13.9286V7.5C60 5.51087 59.2097 3.60322 57.8031 2.1967C56.3966 0.790178 54.489 0 52.5 0H46.0714Z" fill="#FFCACF"/>
<path fill-rule="evenodd" clip-rule="evenodd" d="M21.4289 19.2857C21.4289 21.6526 19.5101 23.5714 17.1431 23.5714C14.7762 23.5714 12.8574 21.6526 12.8574 19.2857C12.8574 16.9188 14.7762 15 17.1431 15C19.5101 15 21.4289 16.9188 21.4289 19.2857ZM33.2146 19.2857C33.2146 17.5105 31.7755 16.0714 30.0003 16.0714C28.2251 16.0714 26.786 17.5105 26.786 19.2857V31.0714H23.5717C21.7965 31.0714 20.3574 32.5105 20.3574 34.2857C20.3574 36.0609 21.7965 37.5 23.5717 37.5H30.0003C31.7755 37.5 33.2146 36.0609 33.2146 34.2857V19.2857ZM21.4997 40.5267C20.2126 39.3041 18.1781 39.3564 16.9555 40.6434C15.7329 41.9305 15.7852 43.965 17.0723 45.1877C20.5609 48.5014 25.1887 50.349 30.0003 50.349C34.8118 50.349 39.4397 48.5014 42.9281 45.1877C44.2156 43.965 44.2679 41.9305 43.0451 40.6434C41.8225 39.3564 39.7879 39.3041 38.5009 40.5267C36.207 42.7056 33.164 43.9204 30.0003 43.9204C26.8365 43.9204 23.7935 42.7056 21.4997 40.5267ZM42.8574 23.5714C45.2244 23.5714 47.1431 21.6526 47.1431 19.2857C47.1431 16.9188 45.2244 15 42.8574 15C40.4905 15 38.5717 16.9188 38.5717 19.2857C38.5717 21.6526 40.4905 23.5714 42.8574 23.5714Z" fill="#F84343"/>
</g>
<defs>
<clipPath id="clip0_305_934">
<rect width="60" height="60" fill="white"/>
</clipPath>
</defs>
</svg>
